%TF.GenerationSoftware,KiCad,Pcbnew,9.0.9-9.0.9~ubuntu22.04.1*%
%TF.CreationDate,2026-06-26T17:31:56-04:00*%
%TF.ProjectId,cc-afe,63632d61-6665-42e6-9b69-6361645f7063,rev?*%
%TF.SameCoordinates,Original*%
%TF.FileFunction,Paste,Bot*%
%TF.FilePolarity,Positive*%
%FSLAX46Y46*%
G04 Gerber Fmt 4.6, Leading zero omitted, Abs format (unit mm)*
G04 Created by KiCad (PCBNEW 9.0.9-9.0.9~ubuntu22.04.1) date 2026-06-26 17:31:56*
%MOMM*%
%LPD*%
G01*
G04 APERTURE LIST*
G04 Aperture macros list*
%AMRoundRect*
0 Rectangle with rounded corners*
0 $1 Rounding radius*
0 $2 $3 $4 $5 $6 $7 $8 $9 X,Y pos of 4 corners*
0 Add a 4 corners polygon primitive as box body*
4,1,4,$2,$3,$4,$5,$6,$7,$8,$9,$2,$3,0*
0 Add four circle primitives for the rounded corners*
1,1,$1+$1,$2,$3*
1,1,$1+$1,$4,$5*
1,1,$1+$1,$6,$7*
1,1,$1+$1,$8,$9*
0 Add four rect primitives between the rounded corners*
20,1,$1+$1,$2,$3,$4,$5,0*
20,1,$1+$1,$4,$5,$6,$7,0*
20,1,$1+$1,$6,$7,$8,$9,0*
20,1,$1+$1,$8,$9,$2,$3,0*%
G04 Aperture macros list end*
%ADD10RoundRect,0.250000X-0.475000X0.250000X-0.475000X-0.250000X0.475000X-0.250000X0.475000X0.250000X0*%
%ADD11RoundRect,0.225000X0.250000X-0.225000X0.250000X0.225000X-0.250000X0.225000X-0.250000X-0.225000X0*%
%ADD12RoundRect,0.225000X0.225000X0.250000X-0.225000X0.250000X-0.225000X-0.250000X0.225000X-0.250000X0*%
%ADD13RoundRect,0.218750X0.256250X-0.218750X0.256250X0.218750X-0.256250X0.218750X-0.256250X-0.218750X0*%
%ADD14RoundRect,0.225000X-0.250000X0.225000X-0.250000X-0.225000X0.250000X-0.225000X0.250000X0.225000X0*%
%ADD15RoundRect,0.225000X-0.225000X-0.250000X0.225000X-0.250000X0.225000X0.250000X-0.225000X0.250000X0*%
%ADD16R,0.812800X0.889000*%
%ADD17RoundRect,0.250000X0.475000X-0.250000X0.475000X0.250000X-0.475000X0.250000X-0.475000X-0.250000X0*%
G04 APERTURE END LIST*
D10*
%TO.C,C29*%
X89521400Y-224510000D03*
X89521400Y-226410000D03*
%TD*%
D11*
%TO.C,C1*%
X131177400Y-226060000D03*
X131177400Y-224510000D03*
%TD*%
D12*
%TO.C,C96*%
X207475000Y-195500000D03*
X205925000Y-195500000D03*
%TD*%
D13*
%TO.C,L2*%
X127240400Y-226059500D03*
X127240400Y-224484500D03*
%TD*%
D10*
%TO.C,C51*%
X278184400Y-203410000D03*
X278184400Y-205310000D03*
%TD*%
D12*
%TO.C,C69*%
X176300000Y-195500000D03*
X174750000Y-195500000D03*
%TD*%
%TO.C,C94*%
X207400000Y-198200000D03*
X205850000Y-198200000D03*
%TD*%
D14*
%TO.C,C2*%
X125589400Y-224497000D03*
X125589400Y-226047000D03*
%TD*%
D11*
%TO.C,C114*%
X119570000Y-279305000D03*
X119570000Y-277755000D03*
%TD*%
D13*
%TO.C,L6*%
X112000400Y-226085000D03*
X112000400Y-224510000D03*
%TD*%
D12*
%TO.C,C81*%
X169430000Y-244410000D03*
X167880000Y-244410000D03*
%TD*%
D13*
%TO.C,L1*%
X129399400Y-226059500D03*
X129399400Y-224484500D03*
%TD*%
D11*
%TO.C,C17*%
X101713400Y-226060000D03*
X101713400Y-224510000D03*
%TD*%
D15*
%TO.C,C59*%
X269949400Y-209600000D03*
X271499400Y-209600000D03*
%TD*%
D11*
%TO.C,C34*%
X125270000Y-279245000D03*
X125270000Y-277695000D03*
%TD*%
D10*
%TO.C,C30*%
X79869400Y-224510000D03*
X79869400Y-226410000D03*
%TD*%
D13*
%TO.C,L10*%
X97776400Y-226085000D03*
X97776400Y-224510000D03*
%TD*%
D10*
%TO.C,C10*%
X123557400Y-224510000D03*
X123557400Y-226410000D03*
%TD*%
D15*
%TO.C,C45*%
X270264400Y-207730000D03*
X271814400Y-207730000D03*
%TD*%
D14*
%TO.C,C22*%
X81901400Y-224510000D03*
X81901400Y-226060000D03*
%TD*%
D12*
%TO.C,C92*%
X186675000Y-195500000D03*
X185125000Y-195500000D03*
%TD*%
D11*
%TO.C,C36*%
X92950000Y-264275000D03*
X92950000Y-262725000D03*
%TD*%
D14*
%TO.C,C53*%
X274314400Y-203570000D03*
X274314400Y-205120000D03*
%TD*%
D10*
%TO.C,C26*%
X94093400Y-224510000D03*
X94093400Y-226410000D03*
%TD*%
D12*
%TO.C,C82*%
X169400000Y-241840000D03*
X167850000Y-241840000D03*
%TD*%
D11*
%TO.C,C33*%
X85282500Y-279482500D03*
X85282500Y-277932500D03*
%TD*%
D15*
%TO.C,C63*%
X280775000Y-192050000D03*
X282325000Y-192050000D03*
%TD*%
D10*
%TO.C,C14*%
X108317400Y-224510000D03*
X108317400Y-226410000D03*
%TD*%
D11*
%TO.C,C108*%
X98710000Y-279250000D03*
X98710000Y-277700000D03*
%TD*%
D12*
%TO.C,C95*%
X197000000Y-195600000D03*
X195450000Y-195600000D03*
%TD*%
D15*
%TO.C,C71*%
X266650000Y-192000000D03*
X268200000Y-192000000D03*
%TD*%
%TO.C,C102*%
X233190000Y-211820000D03*
X234740000Y-211820000D03*
%TD*%
D12*
%TO.C,C105*%
X230475000Y-197920000D03*
X228925000Y-197920000D03*
%TD*%
%TO.C,C104*%
X220475000Y-197890000D03*
X218925000Y-197890000D03*
%TD*%
D14*
%TO.C,C60*%
X272624400Y-203585000D03*
X272624400Y-205135000D03*
%TD*%
D10*
%TO.C,C25*%
X103745400Y-224510000D03*
X103745400Y-226410000D03*
%TD*%
D14*
%TO.C,C6*%
X110349400Y-224510000D03*
X110349400Y-226060000D03*
%TD*%
D10*
%TO.C,C125*%
X254550000Y-309800000D03*
X254550000Y-311700000D03*
%TD*%
D11*
%TO.C,C43*%
X274584400Y-198635000D03*
X274584400Y-197085000D03*
%TD*%
D12*
%TO.C,C56*%
X278334400Y-209200000D03*
X276784400Y-209200000D03*
%TD*%
D13*
%TO.C,L9*%
X99935400Y-226085000D03*
X99935400Y-224510000D03*
%TD*%
D11*
%TO.C,C41*%
X278134400Y-212435000D03*
X278134400Y-210885000D03*
%TD*%
D10*
%TO.C,C13*%
X117969400Y-224510000D03*
X117969400Y-226410000D03*
%TD*%
D11*
%TO.C,C110*%
X138450000Y-279250000D03*
X138450000Y-277700000D03*
%TD*%
%TO.C,C109*%
X92950000Y-279250000D03*
X92950000Y-277700000D03*
%TD*%
D16*
%TO.C,L21*%
X271472000Y-184650000D03*
X269871800Y-184650000D03*
%TD*%
D12*
%TO.C,C38*%
X176275000Y-198200000D03*
X174725000Y-198200000D03*
%TD*%
%TO.C,C91*%
X186650000Y-198200000D03*
X185100000Y-198200000D03*
%TD*%
%TO.C,C93*%
X196975000Y-198100000D03*
X195425000Y-198100000D03*
%TD*%
D15*
%TO.C,C103*%
X233165000Y-214420000D03*
X234715000Y-214420000D03*
%TD*%
%TO.C,C64*%
X273550000Y-192050000D03*
X275100000Y-192050000D03*
%TD*%
D14*
%TO.C,C54*%
X276104400Y-203570000D03*
X276104400Y-205120000D03*
%TD*%
D15*
%TO.C,C70*%
X287975000Y-192100000D03*
X289525000Y-192100000D03*
%TD*%
D12*
%TO.C,C107*%
X250475000Y-197990000D03*
X248925000Y-197990000D03*
%TD*%
D10*
%TO.C,C9*%
X133209400Y-224510000D03*
X133209400Y-226410000D03*
%TD*%
D12*
%TO.C,C106*%
X240475000Y-198050000D03*
X238925000Y-198050000D03*
%TD*%
D11*
%TO.C,C5*%
X115937400Y-226060000D03*
X115937400Y-224510000D03*
%TD*%
D17*
%TO.C,C124*%
X254600000Y-306600000D03*
X254600000Y-304700000D03*
%TD*%
D11*
%TO.C,C112*%
X112700000Y-279250000D03*
X112700000Y-277700000D03*
%TD*%
D12*
%TO.C,C37*%
X298205800Y-212224600D03*
X296655800Y-212224600D03*
%TD*%
D11*
%TO.C,C35*%
X124700000Y-264275000D03*
X124700000Y-262725000D03*
%TD*%
D16*
%TO.C,L20*%
X286169900Y-184400000D03*
X284569700Y-184400000D03*
%TD*%
D11*
%TO.C,C115*%
X79470000Y-279430000D03*
X79470000Y-277880000D03*
%TD*%
D13*
%TO.C,L14*%
X83552400Y-226034000D03*
X83552400Y-224459000D03*
%TD*%
D11*
%TO.C,C113*%
X106950000Y-279250000D03*
X106950000Y-277700000D03*
%TD*%
%TO.C,C111*%
X132450000Y-279250000D03*
X132450000Y-277700000D03*
%TD*%
D13*
%TO.C,L5*%
X114159400Y-226085000D03*
X114159400Y-224510000D03*
%TD*%
D17*
%TO.C,C39*%
X274024400Y-209100000D03*
X274024400Y-207200000D03*
%TD*%
D11*
%TO.C,C21*%
X87489400Y-226060000D03*
X87489400Y-224510000D03*
%TD*%
D13*
%TO.C,L13*%
X85711400Y-226085000D03*
X85711400Y-224510000D03*
%TD*%
D14*
%TO.C,C18*%
X96125400Y-224510000D03*
X96125400Y-226060000D03*
%TD*%
D12*
%TO.C,C40*%
X278444400Y-207500000D03*
X276894400Y-207500000D03*
%TD*%
D11*
%TO.C,C42*%
X271484400Y-212615000D03*
X271484400Y-211065000D03*
%TD*%
M02*
